<?xml version="1.0" encoding="utf-8"?>
<!-- Generator: Adobe Illustrator 23.0.3, SVG Export Plug-In . SVG Version: 6.00 Build 0)  -->
<svg version="1.1" id="Layer_1" xmlns="http://www.w3.org/2000/svg" xmlns:xlink="http://www.w3.org/1999/xlink" x="0px" y="0px"
	 viewBox="0 0 512 512" style="enable-background:new 0 0 512 512;" xml:space="preserve">
<style type="text/css">
	.st0{fill:#000000;}
</style>
<g>
	<path class="st0" d="M256,109.7c-80.5,0-146.3,65.8-146.3,146.3S175.5,402.3,256,402.3S402.3,336.5,402.3,256
		S336.5,109.7,256,109.7z"/>
	<path class="st0" d="M256,91.4c11,0,18.3-7.3,18.3-18.3V18.3C274.3,7.3,267,0,256,0s-18.3,7.3-18.3,18.3v54.9
		C237.7,84.1,245,91.4,256,91.4z"/>
	<path class="st0" d="M113.4,139c3.7,3.7,9.1,5.5,12.8,5.5s9.1-1.8,12.8-5.5c7.3-7.3,7.3-18.3,0-25.6L100.6,75
		c-7.3-7.3-18.3-7.3-25.6,0s-7.3,18.3,0,25.6L113.4,139z"/>
	<path class="st0" d="M91.4,256c0-11-7.3-18.3-18.3-18.3H18.3C7.3,237.7,0,245,0,256s7.3,18.3,18.3,18.3h54.9
		C84.1,274.3,91.4,267,91.4,256z"/>
	<path class="st0" d="M113.4,373L75,411.4c-7.3,7.3-7.3,18.3,0,25.6c3.7,3.7,9.1,5.5,12.8,5.5s9.1-1.8,12.8-5.5l38.4-38.4
		c7.3-7.3,7.3-18.3,0-25.6C131.7,365.7,120.7,365.7,113.4,373z"/>
	<path class="st0" d="M256,420.6c-11,0-18.3,7.3-18.3,18.3v54.9c0,11,7.3,18.3,18.3,18.3s18.3-7.3,18.3-18.3v-54.9
		C274.3,427.9,267,420.6,256,420.6z"/>
	<path class="st0" d="M398.6,373c-7.3-7.3-18.3-7.3-25.6,0s-7.3,18.3,0,25.6l38.4,38.4c3.7,3.7,9.1,5.5,12.8,5.5
		c3.7,0,9.1-1.8,12.8-5.5c7.3-7.3,7.3-18.3,0-25.6L398.6,373z"/>
	<path class="st0" d="M493.7,237.7h-54.9c-11,0-18.3,7.3-18.3,18.3s7.3,18.3,18.3,18.3h54.9c11,0,18.3-7.3,18.3-18.3
		S504.7,237.7,493.7,237.7z"/>
	<path class="st0" d="M385.8,144.5c5.5,0,9.1-1.8,12.8-5.5l38.4-38.4c7.3-7.3,7.3-18.3,0-25.6s-18.3-7.3-25.6,0L373,113.4
		c-7.3,7.3-7.3,18.3,0,25.6C376.7,142.6,380.3,144.5,385.8,144.5z"/>
</g>
</svg>
