<?xml version="1.0" encoding="utf-8"?>
<!-- Generator: Adobe Illustrator 23.0.3, SVG Export Plug-In . SVG Version: 6.00 Build 0)  -->
<svg version="1.1" id="Layer_1" xmlns="http://www.w3.org/2000/svg" xmlns:xlink="http://www.w3.org/1999/xlink" x="0px" y="0px"
	 viewBox="0 0 512 512" style="enable-background:new 0 0 512 512;" xml:space="preserve">
<style type="text/css">
	.st0{fill:#000000;}
</style>
<g>
	<g>
		<path class="st0" d="M53,229.5H17.7c-10.6,0-17.7-7-17.7-17.6s7.1-17.7,17.7-17.7H53c10.6,0,17.7,7.1,17.7,17.7
			S63.6,229.5,53,229.5z"/>
	</g>
	<g>
		<path class="st0" d="M324.9,116.5c-5.3,0-8.8-1.8-12.4-5.3c-7.1-7.1-7.1-17.7,0-24.7l24.7-24.7c7.1-7.1,17.7-7.1,24.7,0
			c7.1,7.1,7.1,17.7,0,24.7l-24.7,24.7C333.7,114.8,328.4,116.5,324.9,116.5z"/>
	</g>
	<g>
		<path class="st0" d="M211.9,70.6c-10.6,0-17.7-7.1-17.7-17.7V17.7c0-10.6,7.1-17.7,17.7-17.7c10.6,0,17.7,7.1,17.7,17.7V53
			C229.5,63.6,222.5,70.6,211.9,70.6z"/>
	</g>
	<g>
		<path class="st0" d="M98.9,116.5c-5.3,0-8.8-1.8-12.4-5.3L61.8,86.5c-7.1-7.1-7.1-17.7,0-24.7s17.7-7.1,24.7,0l24.7,24.7
			c7.1,7.1,7.1,17.7,0,24.7C107.7,114.8,104.2,116.5,98.9,116.5z"/>
	</g>
	<g>
		<path class="st0" d="M354.9,512H208.3c-56.5,0-102.4-45.9-102.4-104.2c0-56.5,44.1-102.4,100.6-104.2
			c21.2-65.3,79.4-109.5,148.3-109.5c86.5,0,157.1,70.6,157.1,158.9S441.4,512,354.9,512z"/>
	</g>
	<path class="st0" d="M181.8,271.9c26.5-58.3,81.2-100.6,143-109.5c-19.4-44.1-63.6-74.2-113-74.2C143,88.3,88.3,143,88.3,211.9
		c0,33.5,14.1,63.6,35.3,86.5C141.2,286,160.7,275.4,181.8,271.9z"/>
</g>
</svg>
