<?xml version="1.0" encoding="utf-8"?>
<!-- Generator: Adobe Illustrator 23.0.3, SVG Export Plug-In . SVG Version: 6.00 Build 0)  -->
<svg version="1.1" id="Layer_1" xmlns="http://www.w3.org/2000/svg" xmlns:xlink="http://www.w3.org/1999/xlink" x="0px" y="0px"
	 viewBox="0 0 512 512" style="enable-background:new 0 0 512 512;" xml:space="preserve">
<style type="text/css">
	.st0{fill:#000000;}
</style>
<g>
	<g>
		<path class="st0" d="M236.3,512c-11.8,0-19.7-7.9-19.7-19.7V374.2c0-11.8,7.9-19.7,19.7-19.7s19.7,7.9,19.7,19.7v118.2
			C256,504.1,248.1,512,236.3,512z"/>
	</g>
	<g>
		<path class="st0" d="M157.5,472.6c-11.8,0-19.7-7.9-19.7-19.7V334.8c0-11.8,7.9-19.7,19.7-19.7s19.7,7.9,19.7,19.7V453
			C177.2,464.7,169.4,472.6,157.5,472.6z"/>
	</g>
	<g>
		<path class="st0" d="M315.1,472.6c-11.8,0-19.7-7.9-19.7-19.7V334.8c0-11.8,7.9-19.7,19.7-19.7c11.8,0,19.7,7.9,19.7,19.7V453
			C334.8,464.7,326.9,472.6,315.1,472.6z"/>
	</g>
	<path class="st0" d="M315.1,0C228.4,0,153.6,55.1,128,137.8c-70.9,0-128,57.1-128,128c0,61,41.4,110.3,98.5,124.1v-55.1
		c0-33.5,25.6-59.1,59.1-59.1c27.6,0,49.2,17.7,57.1,43.3c5.9-2,13.8-3.9,21.7-3.9s15.8,2,21.7,3.9c5.9-25.6,29.5-43.3,57.1-43.3
		c33.5,0,59.1,25.6,59.1,59.1V384C454.9,358.4,512,283.6,512,196.9C512,88.6,423.4,0,315.1,0z"/>
</g>
</svg>
