<?xml version="1.0" encoding="utf-8"?>
<!-- Generator: Adobe Illustrator 23.0.3, SVG Export Plug-In . SVG Version: 6.00 Build 0)  -->
<svg version="1.1" id="Layer_1" xmlns="http://www.w3.org/2000/svg" xmlns:xlink="http://www.w3.org/1999/xlink" x="0px" y="0px"
	 viewBox="0 0 512 512" style="enable-background:new 0 0 512 512;" xml:space="preserve">
<style type="text/css">
	.st0{fill:#000000;}
</style>
<g>
	<path class="st0" d="M60.9,187.2h-34c-10.2,0-17,6.8-17,17s6.8,17,17,17h34c10.2,0,17-6.8,17-17S71.1,187.2,60.9,187.2z"/>
	<path class="st0" d="M322.8,112.3c5.1,0,8.5-1.7,11.9-5.1l23.8-23.8c6.8-6.8,6.8-17,0-23.8s-17-6.8-23.8,0l-23.8,23.8
		c-6.8,6.8-6.8,17,0,23.8C314.3,110.6,317.7,112.3,322.8,112.3z"/>
	<path class="st0" d="M214,68.1c10.2,0,17-6.8,17-17v-34c0-10.2-6.8-17-17-17s-17,6.8-17,17v34C197,61.3,203.8,68.1,214,68.1z"/>
	<path class="st0" d="M117,107.2c6.8-6.8,6.8-17,0-23.8L93.2,59.6c-6.8-6.8-17-6.8-23.8,0s-6.8,17,0,23.8l23.8,23.8
		c3.4,3.4,8.5,5.1,11.9,5.1C108.5,112.3,113.6,110.6,117,107.2z"/>
	<path class="st0" d="M338.1,376c-8.5-3.4-18.7,1.7-22.1,10.2l-34,102.1c-3.4,8.5,1.7,18.7,10.2,22.1c1.7,0,3.4,1.7,5.1,1.7
		c6.8,0,13.6-5.1,15.3-11.9l34-102.1C351.8,387.9,346.7,377.7,338.1,376z"/>
	<path class="st0" d="M287.1,342c-8.5-3.4-18.7,1.7-22.1,10.2l-34,102.1c-3.4,8.5,1.7,18.7,10.2,22.1c1.7,0,3.4,1.7,5.1,1.7
		c6.8,0,13.6-5.1,15.3-11.9l34-102.1C300.7,353.9,295.6,343.7,287.1,342z"/>
	<path class="st0" d="M406.2,342c-8.5-3.4-18.7,1.7-22.1,10.2l-34,102.1c-3.4,8.5,1.7,18.7,10.2,22.1c1.7,0,3.4,1.7,5.1,1.7
		c6.8,0,13.6-5.1,15.3-11.9l34-102.1C419.8,353.9,414.7,343.7,406.2,342z"/>
	<path class="st0" d="M372.2,170.1c-57.8,0-107.2,34-124.2,86.8c-45.9,1.7-83.3,39.1-83.3,85c0,32.3,18.7,59.5,45.9,74.8l23.8-73.1
		c8.5-27.2,37.4-40.8,64.6-32.3c15.3,5.1,27.2,17,32.3,32.3c6.8,0,13.6,0,18.7,1.7c1.7,0,1.7,0,1.7,1.7l1.7-3.4
		c8.5-27.2,37.4-40.8,64.6-32.3s40.8,37.4,32.3,64.6l-11.9,34C477.5,387.8,503,347,503,301C503.1,228,443.6,170.1,372.2,170.1z"/>
	<path class="st0" d="M317.7,144.6c-22.1-35.7-59.5-59.5-103.8-59.5c-66.3,0-119.1,52.7-119.1,119.1c0,35.7,17,69.7,42.5,91.9
		c15.3-35.7,45.9-62.9,85-71.4C242.9,187.2,276.9,158.2,317.7,144.6z"/>
</g>
</svg>
