<?xml version="1.0" encoding="utf-8"?>
<!-- Generator: Adobe Illustrator 23.0.3, SVG Export Plug-In . SVG Version: 6.00 Build 0)  -->
<svg version="1.1" id="Layer_1" xmlns="http://www.w3.org/2000/svg" xmlns:xlink="http://www.w3.org/1999/xlink" x="0px" y="0px"
	 viewBox="0 0 512 512" style="enable-background:new 0 0 512 512;" xml:space="preserve">
<style type="text/css">
	.st0{fill:#000000;}
</style>
<g>
	<g>
		<path class="st0" d="M273.9,512c-1.7,0-3.4,0-5.1-1.7c-8.5-3.4-13.7-11.9-10.2-22.2l34.1-102.4c3.4-8.5,11.9-13.7,22.2-10.2
			c8.5,3.4,13.7,11.9,10.2,22.2L291,500.1C287.6,506.9,280.7,512,273.9,512z"/>
	</g>
	<g>
		<path class="st0" d="M222.7,477.9c-1.7,0-3.4,0-5.1-1.7c-8.5-3.4-13.7-11.9-10.2-22.2l34.1-102.4c3.4-8.5,11.9-13.7,22.2-10.2
			c8.5,3.4,13.7,11.9,10.2,22.2L239.8,466C236.4,472.7,229.5,477.9,222.7,477.9z"/>
	</g>
	<g>
		<path class="st0" d="M342.2,477.9c-1.7,0-3.4,0-5.1-1.7c-8.5-3.4-13.7-11.9-10.2-22.2L361,351.6c3.4-8.5,11.9-13.7,22.2-10.2
			c8.5,3.4,13.7,11.9,10.2,22.2L359.3,466C355.8,472.7,349,477.9,342.2,477.9z"/>
	</g>
	<path class="st0" d="M347.3,170.7c-58,0-107.5,34.1-124.6,87c-47.8,1.7-85.3,39.3-85.3,83.6c0,32.4,18.8,59.7,46.1,75.1l23.9-73.4
		c5.1-13.7,13.7-23.9,25.6-29c11.9-6.8,25.6-6.8,39.3-3.4c13.7,5.1,23.9,13.7,29,25.6c1.7,1.7,1.7,3.4,1.7,6.8
		c6.8,0,13.7,0,18.8,1.7c1.7,0,1.7,0,3.4,1.7l1.7-3.4c5.1-13.7,13.7-23.9,25.6-29c11.9-6.8,25.6-6.8,39.3-3.4
		c13.7,5.1,23.9,13.7,29,25.6s6.8,25.6,3.4,39.3l-11.9,34.1c39.3-22.2,64.9-63.1,64.9-109.2C478.7,228.7,419,170.7,347.3,170.7z"/>
	<path class="st0" d="M197.1,225.3c27.3-54.6,85.3-88.7,148.5-88.7c3.4,0,6.8,0,10.2,0C343.9,58,275.6,0,195.4,0
		c-13.7,0-27.3,1.7-41,5.1c-5.1,1.7-10.2,8.5-10.2,15.4s5.1,13.7,11.9,17.1c27.3,8.5,44.4,34.1,44.4,61.4c0,35.8-29,66.6-66.6,66.6
		c-27.3,0-52.9-18.8-61.4-44.4c-1.7-6.8-10.2-11.9-17.1-11.9S41.7,114.4,40,123c-3.4,11.9-5.1,25.6-5.1,39.3
		c0,56.3,29,107.5,76.8,136.5C125.4,262.8,157.8,233.8,197.1,225.3z"/>
</g>
</svg>
