<?xml version="1.0" encoding="utf-8"?>
<!-- Generator: Adobe Illustrator 23.0.3, SVG Export Plug-In . SVG Version: 6.00 Build 0)  -->
<svg version="1.1" id="Layer_1" xmlns="http://www.w3.org/2000/svg" xmlns:xlink="http://www.w3.org/1999/xlink" x="0px" y="0px"
	 viewBox="0 0 512 512" style="enable-background:new 0 0 512 512;" xml:space="preserve">
<style type="text/css">
	.st0{fill:#000000;}
</style>
<g>
	<path class="st0" d="M320,96c-47.9,0-89.2,26.7-111.2,65.7c-5.5-1-11.1-1.7-16.8-1.7c-41.9,0-77.2,27.1-90.3,64.6
		c-1.9-0.1-3.8-0.6-5.7-0.6c-53,0-96,43-96,96s43,96,96,96h320c53,0,96-43,96-96c0-41.9-27.1-77.3-64.6-90.3
		c0.1-1.9,0.6-3.7,0.6-5.7C448,153.3,390.7,96,320,96L320,96z"/>
</g>
</svg>
