<?xml version="1.0" encoding="utf-8"?>
<!-- Generator: Adobe Illustrator 23.0.3, SVG Export Plug-In . SVG Version: 6.00 Build 0)  -->
<svg version="1.1" id="Layer_1" xmlns="http://www.w3.org/2000/svg" xmlns:xlink="http://www.w3.org/1999/xlink" x="0px" y="0px"
	 viewBox="0 0 512 512" style="enable-background:new 0 0 512 512;" xml:space="preserve">
<style type="text/css">
	.st0{fill:#000000;}
	.st1{fill-rule:evenodd;clip-rule:evenodd;fill:#000000;}
</style>
<g>
	<path class="st0" d="M404.3,155.3c-42.9,0-77.6-34.8-77.6-77.6S361.5,0,404.3,0S482,34.8,482,77.6S447.2,155.3,404.3,155.3z
		 M404.3,104c15.3,0,27.7-12.4,27.7-27.7s-12.4-27.7-27.7-27.7S376.6,61,376.6,76.3S389,104,404.3,104z"/>
	<path class="st1" d="M203.1,455c-30.3,0.1-59.4-11.7-81.2-32.8c-37.4-36.1-44.5-93.4-17-137.6c3.8-6.2,10.7-9.8,17.9-9.7
		c6.5,0,13.2,2.6,18.3,7.6L265,403.4c10.7,10.4,10.8,27.7-2.1,35.3C244.8,449.4,224.1,455.1,203.1,455 M206.2,69.3
		c8.8,0,16.9,3.9,23,11c4.7,5.5,10,11.5,15.6,17.9c51.5,58.9,137.7,157.6,137.7,242c0,94.7-79,171.8-176.1,171.8
		C109.1,512,30,434.9,30,340.2c0-85.4,81-177.6,134.6-238.6c6.7-7.6,13-14.8,18.7-21.4C189.3,73.2,197.5,69.3,206.2,69.3"/>
</g>
</svg>
