<?xml version="1.0" encoding="utf-8"?>
<!-- Generator: Adobe Illustrator 23.0.3, SVG Export Plug-In . SVG Version: 6.00 Build 0)  -->
<svg version="1.1" id="Layer_1" xmlns="http://www.w3.org/2000/svg" xmlns:xlink="http://www.w3.org/1999/xlink" x="0px" y="0px"
	 viewBox="0 0 512 512" style="enable-background:new 0 0 512 512;" xml:space="preserve">
<style type="text/css">
	.st0{fill:#000000;}
</style>
<g>
	<path class="st0" d="M343.3,335.6c-34-28.2-49.6-41.2-60.2-50.2c-19.9-16.9-35.4-17-55.4-0.6c-9.1,7.4-28.9,23.9-56.5,47L129.1,367
		l-13.9,11.6l-5.3,4.5c-23,19.6-21.2,47.3,9.3,47.3c5.9,0,18,0.1,34.3,0.2l7.9,0.1l18.1,0.1v48.3c0,21.5,12.2,32.9,34.3,32.9h81.6
		c23.6,0,34.3-10.7,34.3-33.3v-48.3h64.9c28.3,0,29.7-27,8-45.3C383,368.6,363.2,352,343.3,335.6z"/>
	<path class="st0" d="M115.3,133.4l13.9,11.6l42.1,35.2c18.8,15.7,37.6,31.4,56.5,47c20,16.4,35.6,16.3,55.4-0.6
		c10.6-8.9,26.1-21.9,60.2-50.2c19.9-16.4,39.7-33,59.4-49.5c21.7-18.3,20.2-45.2-8-45.2h-64.9V33.4c0-22.7-10.7-33.4-34.3-33.4H214
		c-22.1,0-34.3,11.5-34.3,32.9v48.3l-18.1,0.1l0,0l-7.9,0.1c-16.4,0.1-28.4,0.2-34.3,0.2c-30.5,0-32.2,27.7-9.3,47.3L115.3,133.4z"
		/>
</g>
</svg>
