<?xml version="1.0" encoding="utf-8"?>
<!-- Generator: Adobe Illustrator 23.0.3, SVG Export Plug-In . SVG Version: 6.00 Build 0)  -->
<svg version="1.1" id="Layer_1" xmlns="http://www.w3.org/2000/svg" xmlns:xlink="http://www.w3.org/1999/xlink" x="0px" y="0px"
	 viewBox="0 0 512 512" style="enable-background:new 0 0 512 512;" xml:space="preserve">
<style type="text/css">
	.st0{fill-rule:evenodd;clip-rule:evenodd;fill:#000000;}
</style>
<g>
	<path class="st0" d="M252.4,446.1c-35,0.1-68.7-13.5-93.9-37.9c-43.3-41.8-51.5-108-19.7-159.1c4.4-7.2,12.4-11.3,20.7-11.2
		c7.5,0,15.3,3,21.2,8.8L324,386.5c12.4,12,12.5,32-2.4,40.8C300.6,439.6,276.6,446.2,252.4,446.1 M255.9,0
		c10.2,0,19.5,4.5,26.6,12.7c5.4,6.4,11.6,13.3,18,20.7c59.6,68.1,159.3,182.3,159.3,279.9c0,109.5-91.4,198.7-203.7,198.7
		c-112.5,0-204-89.2-204-198.7c0-98.8,93.7-205.4,155.7-276c7.7-8.8,15-17.1,21.6-24.7C236.4,4.5,245.9,0,255.9,0"/>
</g>
</svg>
