<?xml version="1.0" encoding="utf-8"?>
<!-- Generator: Adobe Illustrator 23.0.3, SVG Export Plug-In . SVG Version: 6.00 Build 0)  -->
<svg version="1.1" id="Icons" xmlns="http://www.w3.org/2000/svg" xmlns:xlink="http://www.w3.org/1999/xlink" x="0px" y="0px"
	 viewBox="0 0 32 32" style="enable-background:new 0 0 32 32;" xml:space="preserve">
<style type="text/css">
	.st0{fill:#000000;}
</style>
<g>
	<path class="st0" d="M16,4C7.2,4,0,11.2,0,20c0,2.4,0.6,4.6,1.6,6.8c0.2,0.8,1,1.2,1.8,1.2H14V16.8l-2.6,2.6c-0.8,0.8-2,0.8-2.8,0
		s-0.8-2,0-2.8l6-6c0.2-0.2,0.4-0.4,0.6-0.4c0.4-0.2,1-0.2,1.6,0c0.2,0.2,0.4,0.2,0.6,0.4l6,6c0.8,0.8,0.8,2,0,2.8
		C23,19.8,22.6,20,22,20s-1-0.2-1.4-0.6L18,16.8V28h10.6c0.8,0,1.4-0.4,1.8-1.2c1-2.2,1.6-4.4,1.6-6.8C32,11.2,24.8,4,16,4z"/>
</g>
</svg>
