<?xml version="1.0" encoding="utf-8"?>
<!-- Generator: Adobe Illustrator 23.0.3, SVG Export Plug-In . SVG Version: 6.00 Build 0)  -->
<svg version="1.1" id="Icons" xmlns="http://www.w3.org/2000/svg" xmlns:xlink="http://www.w3.org/1999/xlink" x="0px" y="0px"
	 viewBox="0 0 32 32" style="enable-background:new 0 0 32 32;" xml:space="preserve">
<style type="text/css">
	.st0{fill:#000000;}
</style>
<path class="st0" d="M16,4C7.2,4,0,11.2,0,20c0,2.4,0.6,4.6,1.6,6.8c0.2,0.8,1,1.2,1.8,1.2h25.2c0.8,0,1.4-0.4,1.8-1.2
	c1-2.2,1.6-4.4,1.6-6.8C32,11.2,24.8,4,16,4z M23.4,19.4l-6,6c-0.2,0.2-0.4,0.4-0.6,0.4C16.6,26,16.2,26,16,26s-0.6,0-0.8-0.2
	s-0.4-0.2-0.6-0.4l-6-6c-0.8-0.8-0.8-2,0-2.8s2-0.8,2.8,0l2.6,2.6V10c0-1.2,0.8-2,2-2s2,0.8,2,2v9.2l2.6-2.6c0.8-0.8,2-0.8,2.8,0
	C24.2,17.4,24.2,18.6,23.4,19.4z"/>
</svg>
