<?xml version="1.0" encoding="utf-8"?>
<!-- Generator: Adobe Illustrator 23.0.3, SVG Export Plug-In . SVG Version: 6.00 Build 0)  -->
<svg version="1.1" id="Layer_1" xmlns="http://www.w3.org/2000/svg" xmlns:xlink="http://www.w3.org/1999/xlink" x="0px" y="0px"
	 viewBox="0 0 512 512" style="enable-background:new 0 0 512 512;" xml:space="preserve">
<style type="text/css">
	.st0{fill:#000000;}
</style>
<g>
	<path class="st0" d="M339.7,0c-43.1,0-78.1,35-78.1,78.1s35,78.1,78.1,78.1s78.1-35,78.1-78.1S382.8,0,339.7,0z M339.7,104.6
		c-15.4,0-27.9-12.5-27.9-27.9s12.5-27.9,27.9-27.9s27.9,12.5,27.9,27.9S355.1,104.6,339.7,104.6z"/>
	<path class="st0" d="M187.2,370.9v-9l0,0c20.5-9,34.9-29.4,34.9-53.3V86c0-32.1-26-58.1-58.1-58.1s-58.1,26-58.1,58.1v222.7
		c0,23.1,13.7,44,34.9,53.3v9c-27.1,10-46.5,36.9-46.5,68.5c0,40.1,31.2,72.6,69.7,72.6s69.7-32.5,69.7-72.6
		C233.7,407.8,214.3,380.9,187.2,370.9z"/>
</g>
</svg>
