<?xml version="1.0" encoding="utf-8"?>
<!-- Generator: Adobe Illustrator 23.0.3, SVG Export Plug-In . SVG Version: 6.00 Build 0)  -->
<svg version="1.1" id="Icons" xmlns="http://www.w3.org/2000/svg" xmlns:xlink="http://www.w3.org/1999/xlink" x="0px" y="0px"
	 viewBox="0 0 32 32" style="enable-background:new 0 0 32 32;" xml:space="preserve">
<style type="text/css">
	.st0{fill:#000000;}
</style>
<path class="st0" d="M17.7,2.5C17.5,2.3,17.2,2.2,17,2c0.1-0.1,0.1-0.2,0.1-0.3c0-0.7-0.5-1.1-1.1-1.1S14.9,1,14.9,1.7
	c0,0.1,0,0.2,0.1,0.3c-0.2,0.1-0.5,0.3-0.7,0.5C7.8,4.7,0,10.6,0,17.7c0,0.7,0.5,1.1,1.1,1.1h8.1h1h4.6v8.6c0,0.9-0.8,1.7-1.7,1.7
	s-1.7-0.8-1.7-1.7c0-0.7-0.5-1.1-1.1-1.1s-1.1,0.5-1.1,1.1c0,2.2,1.8,4,4,4s4-1.8,4-4v-8.6h4.6h1h8.1c0.7,0,1.1-0.5,1.1-1.1
	C32,10.6,24.2,4.7,17.7,2.5z"/>
</svg>
