<?xml version="1.0" encoding="utf-8"?>
<!-- Generator: Adobe Illustrator 23.0.3, SVG Export Plug-In . SVG Version: 6.00 Build 0)  -->
<svg version="1.1" id="Layer_1" xmlns="http://www.w3.org/2000/svg" xmlns:xlink="http://www.w3.org/1999/xlink" x="0px" y="0px"
	 viewBox="0 0 512 512" style="enable-background:new 0 0 512 512;" xml:space="preserve">
<style type="text/css">
	.st0{fill:#000000;}
</style>
<path class="st0" d="M493.2,233.3c0.5,0.1,0.5,0.1-1.6-0.3l-98.9-13.3l79.1-60.4l1.4-1.1c9.2-7.5,10.9-22,3.2-32.3
	c-6.5-8.5-17.9-11.6-27.8-7.7l-92.3,37.9l38.3-91.8l0.6-1.8c1.8-4.5,1.7-10.8-0.6-16.4c-1.4-3.4-3.5-6.4-6.2-8.8
	c-9.8-8.7-24.7-7.8-33.4,1.9c0.4-0.5,0.4-0.5-1.4,1.6l-60.7,78.6l-12.7-98.7l-0.2-1.2C277.8,7,266.1-1.6,253.5,0.1
	c-10,1.3-18.1,8.8-20.2,18.7c0-0.5,0-0.5-0.4,1.7l-13.2,98.7L159.3,40c-0.4-0.7-0.4-0.7-2.4-2.6c-5.9-7.9-20.8-9.6-30.9-1.9
	c-8.5,6.5-11.7,18-7.6,27.9l37.9,92.2l-91.9-38.3c-1.2-0.5-1.2-0.5-1.7-0.6c-10.9-4.2-24.5,1.6-29.5,13.4l0,0
	c-4.2,9.9-1.2,21.4,7.4,28l78.9,60.9l-98.8,12.7L20,232l-0.7,0.1c-11.9,1.8-20.8,13.6-19.1,26.4c1.4,10.7,9.8,19.2,20.5,20.6
	l98.6,13.3l-79.1,60.4c-0.9,0.7-0.9,0.7-2.3,2.1c-3,2.2-6.1,7.7-6.9,13.7c-0.8,6.3,0.8,12.6,4.7,17.6c6.5,8.5,18,11.6,27.9,7.6
	l92.2-37.9l-38.3,91.8l-0.2,0.5h-0.1c-4.7,12.1,1.1,25.7,13,30.7c9.3,3.9,20.1,1.4,26.9-6.1l1.2-1.4l60.8-78.9l12.7,98.8
	c0.1,0.9,0.1,0.9,0.4,2.2c1.5,10.1,11.5,18.6,23.2,18.6c1.6,0,1.6,0,3.1-0.2c10-1.3,18.1-8.8,20.2-18.7l0.4-1.9l13.2-98.5l60.4,79.2
	c0.8,1.1,0.8,1.1,1.5,1.8c7,8.6,21.7,10.3,31.8,2.8c8.1-6.2,11.4-16.7,8.2-26.4c0.2,0.5,0.2,0.5-0.5-1.6l-37.9-92.1l91.8,38.3
	c1.2,0.5,1.2,0.5,1.9,0.7c10.7,4.2,24.3-1.7,29.2-13.4c3.9-9.3,1.5-20.1-6-26.8c0.3,0.2,0.3,0.2-1.3-1.2c0,0-56.4-43.5-78.9-60.9
	l99.1-12.8l1.1-0.2c11.9-1.8,20.7-13.6,19.1-26.4C510.5,243.5,503.1,235.4,493.2,233.3z M182,255.2c0-40.4,32.7-73.1,73.1-73.1
	c0,0,0,0,0.1,0c40.4,0,73.1,32.8,73.1,73.2s-32.8,73.1-73.2,73.1C214.8,328.3,182,295.6,182,255.2z"/>
</svg>
