<?xml version="1.0" encoding="utf-8"?>
<!-- Generator: Adobe Illustrator 23.0.3, SVG Export Plug-In . SVG Version: 6.00 Build 0)  -->
<svg version="1.1" id="Layer_1" xmlns="http://www.w3.org/2000/svg" xmlns:xlink="http://www.w3.org/1999/xlink" x="0px" y="0px"
	 viewBox="0 0 512 512" style="enable-background:new 0 0 512 512;" xml:space="preserve">
<style type="text/css">
	.st0{fill:#000000;}
</style>
<g>
	<path class="st0" d="M346.5,479.6c-23.6,0-46.1-10.2-61.6-28.1c-9.4-10.8-8.2-27.1,2.6-36.5c10.8-9.4,27.1-8.2,36.5,2.6
		c5.7,6.5,13.9,10.3,22.6,10.3c0,0,0,0,0.1,0c20,0,32-13.8,32-27.1c0-12.7-8.5-31.7-31.9-31.7H103.6c-14.3,0-25.9-11.6-25.9-25.9
		s11.6-25.9,25.9-25.9h243.1c52.4,0,83.7,42.4,83.7,83.5c0,44.2-36.8,78.9-83.7,78.9C346.6,479.6,346.6,479.6,346.5,479.6z
		 M428.2,272.4H25.9C11.6,272.4,0,260.8,0,246.5c0-14.3,11.6-25.9,25.9-25.9h402.4c23.5,0,32-18.9,32-31.6c0-13.3-12-27.1-32-27.1
		c-11.5,0-19,6-23.3,11.1c-9.2,10.9-25.6,12.2-36.5,3c-10.9-9.3-12.2-25.6-3-36.5c16.1-18.9,38.4-29.3,62.8-29.3
		c47,0,83.8,34.7,83.8,78.9C512,230,480.7,272.4,428.2,272.4z M242.2,194.8H103.6c-14.3,0-25.9-11.6-25.9-25.9
		c0-14.3,11.6-25.9,25.9-25.9h138.6c23.4,0,31.9-18.9,31.9-31.6c0-13.3-11.9-27.1-31.9-27.1c-7.1,0-13.5,2.3-19,6.8
		c-11.1,9-27.4,7.4-36.4-3.7c-9.1-11.1-7.4-27.4,3.7-36.4c14.8-12.1,32.7-18.5,51.7-18.5c47,0,83.7,34.7,83.7,78.9
		C325.9,152.3,294.6,194.8,242.2,194.8z"/>
</g>
</svg>
