<?xml version="1.0" encoding="utf-8"?>
<!-- Generator: Adobe Illustrator 23.0.3, SVG Export Plug-In . SVG Version: 6.00 Build 0)  -->
<svg version="1.1" id="Layer_1" xmlns="http://www.w3.org/2000/svg" xmlns:xlink="http://www.w3.org/1999/xlink" x="0px" y="0px"
	 viewBox="0 0 514.5 512" style="enable-background:new 0 0 514.5 512;" xml:space="preserve">
<style type="text/css">
	.st0{fill:#CCCCCC;}
	.st1{fill:#FFD419;}
</style>
<g>
	<g>
		<path class="st0" d="M350.5,502.8H198.7c-58.5,0-106.1-47.5-106.1-107.9c0-58.5,45.7-106.1,104.2-107.9
			c21.9-67.7,82.3-113.4,153.6-113.4c89.6,0,162.7,73.1,162.7,164.6S440.1,502.8,350.5,502.8z"/>
	</g>
	<path class="st1" d="M74.4,323.6c20.1-34.7,54.9-62.2,95.1-71.3c31.1-67.7,96.9-113.4,171.9-117C319.4,49.3,228-9.2,132.9,14.6
		c-9.1,1.8-14.6,9.1-14.6,16.5s5.5,14.6,12.8,18.3c29.3,9.1,47.5,36.6,47.5,65.8c0,38.4-31.1,71.3-71.3,71.3
		c-29.3,0-56.7-20.1-65.8-47.5c-1.8-7.3-9.1-12.8-18.3-12.8c-7.3,0-14.6,5.5-16.5,14.6c-3.7,12.8-5.5,27.4-5.5,42.1
		C1.3,239.5,28.7,292.5,74.4,323.6z"/>
</g>
</svg>
