<?xml version="1.0" encoding="utf-8"?>
<!-- Generator: Adobe Illustrator 23.0.3, SVG Export Plug-In . SVG Version: 6.00 Build 0)  -->
<svg version="1.1" id="Capa_1" xmlns="http://www.w3.org/2000/svg" xmlns:xlink="http://www.w3.org/1999/xlink" x="0px" y="0px"
	 viewBox="0 0 512 512" style="enable-background:new 0 0 512 512;" xml:space="preserve">
<style type="text/css">
	.st0{fill:#CCCCCC;}
</style>
<g>
	<g>
		<path class="st0" d="M378,498.7H261c-51.2,0-91.4-40.2-91.4-91.4c0-45.7,32.9-82.3,76.8-89.6c18.3-54.9,71.3-93.3,131.7-93.3
			c76.8,0,139,62.2,139,137.1S454.8,498.7,378,498.7z"/>
	</g>
	<path class="st0" d="M220.8,286.6c29.3-60.3,89.6-98.7,159.1-98.7c38.4,0,73.1,12.8,100.6,32.9c0-5.5,1.8-9.1,1.8-14.6
		c0-100.6-82.3-182.9-182.9-182.9c-80.5,0-149.9,51.2-173.7,128C58,151.3,5,204.3,5,270.1S58,389,123.9,389h11
		C142.1,341.5,175.1,303.1,220.8,286.6z"/>
</g>
</svg>
