<?xml version="1.0" encoding="utf-8"?>
<!-- Generator: Adobe Illustrator 23.0.3, SVG Export Plug-In . SVG Version: 6.00 Build 0)  -->
<svg version="1.1" id="Layer_1" xmlns="http://www.w3.org/2000/svg" xmlns:xlink="http://www.w3.org/1999/xlink" x="0px" y="0px"
	 viewBox="0 0 512 512" style="enable-background:new 0 0 512 512;" xml:space="preserve">
<style type="text/css">
	.st0{fill:#00BBFC;}
	.st1{fill:#CCCCCC;}
</style>
<g>
	<g>
		<path class="st0" d="M237.3,513c-11.8,0-19.7-7.9-19.7-19.7V375.2c0-11.8,7.9-19.7,19.7-19.7c11.8,0,19.7,7.9,19.7,19.7v118.2
			C257,505.1,249.1,513,237.3,513z"/>
	</g>
	<g>
		<path class="st0" d="M158.5,473.6c-11.8,0-19.7-7.9-19.7-19.7V335.8c0-11.8,7.9-19.7,19.7-19.7c11.8,0,19.7,7.9,19.7,19.7v118.2
			C178.2,465.7,170.4,473.6,158.5,473.6z"/>
	</g>
	<g>
		<path class="st0" d="M316.1,473.6c-11.8,0-19.7-7.9-19.7-19.7V335.8c0-11.8,7.9-19.7,19.7-19.7c11.8,0,19.7,7.9,19.7,19.7v118.2
			C335.8,465.7,327.9,473.6,316.1,473.6z"/>
	</g>
	<path class="st1" d="M316.1,1C229.4,1,154.6,56.1,129,138.8c-70.9,0-128,57.1-128,128c0,61,41.4,110.3,98.5,124.1v-55.1
		c0-33.5,25.6-59.1,59.1-59.1c27.6,0,49.2,17.7,57.1,43.3c5.9-2,13.8-3.9,21.7-3.9c7.9,0,15.8,2,21.7,3.9
		c5.9-25.6,29.5-43.3,57.1-43.3c33.5,0,59.1,25.6,59.1,59.1V385C455.9,359.4,513,284.6,513,197.9C513,89.6,424.4,1,316.1,1z"/>
</g>
</svg>
