<?xml version="1.0" encoding="utf-8"?>
<!-- Generator: Adobe Illustrator 23.0.3, SVG Export Plug-In . SVG Version: 6.00 Build 0)  -->
<svg version="1.1" id="Layer_1" xmlns="http://www.w3.org/2000/svg" xmlns:xlink="http://www.w3.org/1999/xlink" x="0px" y="0px"
	 viewBox="0 0 512 512" style="enable-background:new 0 0 512 512;" xml:space="preserve">
<style type="text/css">
	.st0{fill:#FFD419;}
	.st1{fill:#CCCCCC;}
</style>
<g>
	<g>
		<path class="st0" d="M196.4,511c-3.9,0-7.8-2-11.7-3.9c-9.8-5.9-11.7-17.6-5.9-27.4l58.6-86h-41c-7.8,0-13.7-3.9-17.6-9.8
			c-3.9-5.9-3.9-13.7,0-19.5L257,247.2c5.9-9.8,17.6-11.7,27.4-5.9c9.8,5.9,11.7,17.6,5.9,27.4l-58.6,86h43c7.8,0,13.7,3.9,17.6,9.8
			c3.9,5.9,3.9,13.7,0,19.5L214,501.3C208.1,507.1,202.3,511,196.4,511z"/>
	</g>
	<path class="st1" d="M313.7,3c-86,0-160.2,54.7-185.6,136.8c-70.4,0-127,56.7-127,127s56.7,127,127,127h13.7
		c-5.9-17.6-3.9-37.1,5.9-52.8l78.2-117.3c7.8-13.7,21.5-21.5,37.1-25.4c15.6-3.9,31.3,0,44.9,7.8c13.7,7.8,21.5,21.5,25.4,37.1
		c3.9,15.6,0,31.3-7.8,44.9l-21.5,33.2c9.8,5.9,19.5,13.7,25.4,23.5c7.8,13.7,7.8,29.3,3.9,43h19.5c2,0,2,0,3.9,0
		C446.6,368.4,513,288.3,513,196.4C509.1,90.9,421.2,3,313.7,3z"/>
</g>
</svg>
