<?xml version="1.0" encoding="utf-8"?>
<!-- Generator: Adobe Illustrator 23.0.3, SVG Export Plug-In . SVG Version: 6.00 Build 0)  -->
<svg version="1.1" id="Layer_1" xmlns="http://www.w3.org/2000/svg" xmlns:xlink="http://www.w3.org/1999/xlink" x="0px" y="0px"
	 viewBox="0 0 512 512" style="enable-background:new 0 0 512 512;" xml:space="preserve">
<style type="text/css">
	.st0{fill:#E5E5E5;}
	.st1{fill:#CCCCCC;}
</style>
<g>
	<path class="st0" d="M368.2,385.9l-37.4,9.8L295.4,374l35.4-21.7l37.4,9.8c2,0,3.9,0,5.9,0c7.9,0,15.8-5.9,19.7-13.8
		c2-9.8-3.9-21.7-13.8-23.6l-27.6-7.9l7.9-27.6c2-9.8-3.9-21.7-13.8-23.6c-9.9-1.9-21.7,3.9-23.6,13.8l-9.8,37.4l-37.4,23.6V299
		l27.6-27.6c7.9-7.9,7.9-19.7,0-27.6s-19.7-7.9-27.6,0l-19.7,20l-19.7-19.7c-7.9-7.9-19.7-7.9-27.6,0c-7.9,7.9-7.9,19.7,0,27.6
		l27.6,27.6v41.4l-35.4-21.8l-9.8-37.4c-2-9.8-13.8-17.7-23.6-13.8c-9.8,2-17.7,13.8-13.8,23.6l7.9,27.6l-27.6,7.9
		c-9.8,2-17.7,13.8-13.8,23.6c2,7.9,9.8,13.8,19.7,13.8c2,0,3.9,0,5.9,0l37.4-9.8l33.5,19.7l-35.4,21.7l-37.4-9.8
		c-9.8-2-21.7,3.9-23.6,13.8c-2,9.8,3.9,21.7,13.8,23.6l27.6,7.9l-7.9,27.6c-2,9.8,3.9,21.7,13.8,23.6c2,0,3.9,0,5.9,0
		c7.9,0,15.8-5.9,19.7-13.8l9.8-37.4l35.4-21.7v41.3l-27.6,27.6c-7.9,7.9-7.9,19.7,0,27.6s19.7,7.9,27.6,0l19.7-19.7l19.7,19.7
		c3.9,3.9,9.8,5.9,13.8,5.9s9.8-2,13.8-5.9c7.9-7.9,7.9-19.7,0-27.6l-29.7-27.6v-41.4l35.4,21.7l9.8,37.4c2,7.9,9.8,13.8,19.7,13.8
		c2,0,3.9,0,5.9,0c9.8-2,17.7-13.8,13.8-23.6l-7.9-27.6l27.6-7.9c9.8-2,17.7-13.8,13.8-23.6C389.9,387.8,380.1,381.9,368.2,385.9z"
		/>
	<path class="st1" d="M315.1-0.1C228.4-0.1,153.6,55,128,137.7c-70.9,0-128,57.1-128,128c0,47.3,25.6,90.6,67,112.2
		c5.9,2,9.8,5.9,15.8,7.9c2-3.9,2-7.9,3.9-9.8c-2-3.9-3.9-9.8-5.9-13.8c-3.9-17.7-2-33.5,5.9-47.3c5.9-9.8,15.8-17.7,25.6-23.6
		c0-11.8,2-23.6,7.9-33.5c7.9-13.8,19.7-23.6,35.4-27.6c5.9-2,9.8-2,15.8-2c2-3.9,5.9-7.9,9.8-11.8c19.7-19.7,53.2-23.6,74.8-7.9
		c23.6-15.8,55.1-13.8,74.8,7.9c3.9,3.9,5.9,7.9,9.8,11.8c5.9,0,9.8,0,15.8,2c15.8,3.9,27.6,13.8,35.4,27.6
		c5.9,9.8,7.9,21.7,7.9,33.5c9.8,5.9,19.7,13.8,25.6,23.6c7.9,11.8,9.8,25.6,5.9,39.4c49.3-35.4,80.8-92.5,80.8-157.5
		C512,88.5,423.4-0.1,315.1-0.1z"/>
</g>
</svg>
